<svg width="50" height="18" viewBox="0 0 50 18" fill="none" xmlns="http://www.w3.org/2000/svg">
<path d="M7.15065 3.0686H10.5888C10.3632 3.49068 10.1199 3.899 9.85981 4.29197C8.62114 5.93084 7.33467 7.53384 6.11723 9.20225C5.82486 9.62005 5.64921 10.1362 5.61471 10.6787C5.54747 12.0771 5.62707 13.4882 5.57929 14.8972C5.55098 15.7409 5.73505 16.1501 6.50479 16.0488C6.78261 16.0109 7.07631 16.1501 7.48507 16.2345C6.80027 16.882 3.88411 16.9157 3.17984 16.1817L4.9635 15.9181C4.9635 13.9565 4.98298 12.0329 4.94405 10.1113C4.94405 9.81605 4.69456 9.49545 4.50699 9.24656C3.22231 7.55917 1.92345 5.87178 0.631691 4.1844C0.454738 3.9566 0.293742 3.71402 0 3.30272C0.408761 3.19093 0.686572 3.05384 0.967927 3.04963C2.49857 3.02642 4.03098 3.01166 5.5687 3.04963C6.11726 3.06228 6.47116 2.90198 6.58087 2.20593C6.7012 1.46348 7.13295 1.12178 7.71512 0.908747C8.42293 0.651421 9.09004 0.275979 9.78901 0.0144336C9.95357 -0.0467342 10.1748 0.103031 10.3694 0.155762C10.2526 0.328719 10.1642 0.577586 10.0155 0.659846C9.33955 1.00365 8.61938 1.23778 7.96642 1.63431C7.58952 1.86422 7.31347 2.32614 6.99141 2.68893L7.15065 3.0686ZM5.3015 9.13265L7.5364 6.17972C6.10131 5.25588 5.85535 6.86945 5.23601 7.61401L5.0502 7.43051C5.10506 6.98124 5.15817 6.52985 5.21303 6.07215H2.95511L5.3015 9.13265ZM1.36961 3.84692C1.84385 4.90154 2.41892 5.41617 3.33908 5.27274C3.77626 5.20841 4.21842 5.20841 4.6556 5.27274C5.54036 5.39297 5.87836 4.88677 5.91552 3.84481L1.36961 3.84692ZM6.39329 5.11246C8.03541 5.43729 8.57513 5.39721 9.10245 3.84692C6.71889 3.57061 6.7065 3.57061 6.39329 5.11246V5.11246Z" fill="#F2ECD3"/>
<path d="M33.0229 3.63816H43.6047C43.7251 2.32623 44.1816 1.31804 45.1601 0.759096C45.4967 0.558552 45.8656 0.447336 46.2417 0.433136C46.6177 0.418935 46.9919 0.502082 47.3384 0.676834C47.6734 0.841495 47.977 1.08518 48.2309 1.39325C48.4849 1.70133 48.684 2.06742 48.8162 2.46954C48.9484 2.87166 49.0111 3.3015 49.0004 3.73322C48.9897 4.16494 48.906 4.5896 48.7541 4.98173C48.1754 6.45818 46.4997 7.55499 44.7071 6.20509C44.2064 6.77247 43.6932 7.35461 43.1818 7.93886C42.2758 8.97238 41.3663 10.0038 40.4709 11.05C40.3312 11.1956 40.2386 11.3948 40.209 11.6131C40.186 12.9588 40.1966 14.3045 40.1966 15.6692C40.6178 15.802 41.046 15.9033 41.453 16.0762C41.7291 16.1951 41.9859 16.3699 42.2121 16.593C42.27 16.6647 42.3125 16.752 42.3359 16.8475C42.3593 16.943 42.363 17.0438 42.3466 17.1414C42.3094 17.2637 42.0776 17.3713 41.9325 17.3734C40.6077 17.3903 39.283 17.3903 37.9582 17.3734C37.8007 17.3734 37.5052 17.1899 37.5123 17.1351C37.5423 16.8946 37.6113 16.5487 37.7582 16.4622C38.206 16.1875 38.6819 15.9833 39.1738 15.8548C39.5967 15.7535 39.7047 15.5363 39.6799 15.0617C39.6481 14.0661 39.664 13.0685 39.6569 12.073C39.6595 11.8262 39.6166 11.5818 39.5313 11.3569C39.446 11.1321 39.3203 10.9322 39.1632 10.7716C37.2167 8.60749 35.2826 6.4118 33.3468 4.23297C33.2247 4.09377 33.0973 3.95667 32.9716 3.81113L33.0229 3.63816ZM48.5948 4.48185C48.6709 4.29202 48.8089 4.1022 48.8089 3.91237C48.7952 3.4886 48.7616 3.06609 48.7081 2.64684C48.4232 2.1132 48.3011 1.39606 47.6322 1.29482C47.5172 1.15772 47.4234 0.961584 47.2783 0.894089C46.9577 0.72164 46.6085 0.638108 46.2569 0.649799C45.9054 0.66149 45.5606 0.768088 45.2486 0.961573L45.8998 2.06891C46.0113 1.62176 45.4521 0.866656 46.2626 0.74854C47.073 0.630424 46.7279 1.43193 46.781 1.8369C47.1562 1.80105 46.9686 0.710563 47.6375 1.2906C47.7631 1.41926 48.0144 1.61331 47.9914 1.66393C47.8416 2.01864 47.6731 2.36172 47.4871 2.69112C47.8941 2.49707 48.2958 1.96134 48.6974 2.64895C48.8107 3.61919 48.1258 3.47999 47.5631 3.65927C47.8905 3.72677 48.094 3.77738 48.2993 3.80902C48.6868 3.87019 48.7629 4.10432 48.5912 4.50085C48.5594 4.9923 48.3524 5.11042 47.9932 4.90161L47.4198 4.55989C47.6711 4.96486 47.9011 5.33398 48.1966 5.81278L48.5948 4.48185ZM33.2937 3.88284C35.3994 6.25993 37.3937 8.52312 39.395 10.761C39.5046 10.8545 39.6315 10.9152 39.7649 10.9382C40.3276 11.1048 40.6142 10.607 40.9487 10.2253L44.5426 6.1123L44.1533 5.47953C42.8368 6.95598 41.5963 8.36282 40.3629 9.76756C40.0851 10.0839 39.8515 10.1894 39.5224 9.81818C38.3156 8.43875 37.0876 7.08673 35.8701 5.71996C35.7895 5.61429 35.7151 5.50226 35.6472 5.3846C36.5072 5.33609 36.5071 5.33399 37.0327 6.00261C37.2096 6.2283 37.3866 6.46031 37.5635 6.68811L39.5808 9.24237L39.6463 9.17908L37.606 5.34031H44.0046C43.856 4.80457 43.7268 4.34053 43.5976 3.88073L33.2937 3.88284ZM46.6801 6.62482L47.5915 6.25571C46.9598 6.25571 47.0517 5.45844 46.7244 5.13573C46.6784 5.61452 47.0695 6.10175 46.6731 6.61429L46.6801 6.62482ZM45.9263 5.2665L45.2062 6.32111L45.9263 6.60373V5.2665ZM44.0789 4.9944L44.5284 5.71154L45.1017 4.69068C44.9403 4.78242 44.7742 4.862 44.6045 4.929C44.4281 4.96101 44.2502 4.97933 44.0719 4.98384L44.0789 4.9944ZM44.0931 2.28195L45.0876 2.55193L44.4877 1.61965L44.0931 2.28195Z" fill="#F2ECD3"/>
<path d="M23.517 17.5654C22.1518 17.7183 20.7777 17.7226 19.4117 17.5781C19.3958 17.422 19.3817 17.268 19.3675 17.114C19.7133 17.0255 20.0651 16.974 20.4186 16.9601C20.9494 16.9917 21.1618 16.7829 21.1494 16.129C21.1211 14.6526 21.1706 13.1761 21.114 11.6996C21.084 11.5155 21.0193 11.3418 20.925 11.1917C20.8306 11.0415 20.7089 10.9188 20.569 10.8328C18.7199 9.85408 17.9306 8.27426 18.3235 5.87185C18.5871 4.2604 19.0189 2.68902 19.3852 1.10288C19.5338 0.451131 19.8647 0.126299 20.4752 0.143173C23.7011 0.231761 23.0623 -0.512797 24.1045 3.30702C24.3262 4.18082 24.4947 5.07253 24.6088 5.9752C24.9291 8.19411 24.1275 9.93632 22.3739 10.7589C21.9192 10.9698 21.728 11.2019 21.7422 11.8135C21.7811 13.3912 21.7546 14.9774 21.7617 16.553C21.7841 16.6667 21.8211 16.7755 21.8714 16.8757L23.5277 17.0676L23.517 17.5654ZM21.4095 5.37827C20.8504 5.37827 20.2894 5.42258 19.7338 5.36563C19.1127 5.30235 18.9181 5.66303 18.849 6.319C18.6862 7.79546 19.1498 8.92812 20.1602 9.7465C20.9636 10.3961 21.8148 10.4573 22.6376 9.81187C23.6444 9.02302 24.1894 7.96631 24.039 6.44766C23.9647 5.69256 23.8073 5.27493 23.0871 5.36352C22.5314 5.4289 21.9687 5.37616 21.4113 5.37827H21.4095ZM23.7187 4.58942C23.6108 4.04102 23.5595 3.62972 23.4498 3.24162C22.6447 0.351975 23.1897 0.974197 20.6186 0.921466C20.408 0.921466 20.0682 1.13239 20.0027 1.34331C19.6771 2.37262 19.4223 3.43356 19.118 4.59153L23.7187 4.58942Z" fill="#F2ECD3"/>
</svg>
